<svg xmlns="http://www.w3.org/2000/svg" viewBox="0 0 718.68 531.42"><g data-name="Слой 2"><circle cx="326.48" cy="186.95" r="10" fill="#ff5b22"/><circle cx="648.97" cy="521.42" r="10" fill="#ff5b22"/><path d="M321 170.39c-4.62 0-7.31-3.39-7.31-8.29s2.88-8.23 7.46-8.23a6.41 6.41 0 0 1 6.67 5.48h-2.42A4.19 4.19 0 0 0 321 156c-2.68 0-4.77 2.13-4.77 6.14s2 6.2 4.8 6.2a4.18 4.18 0 0 0 4.4-3.39h2.42c-.68 3.5-3.34 5.44-6.85 5.44zm16.4-7.61v-.24c0-2.09-1.1-2.79-2.55-2.79a2.27 2.27 0 0 0-2.57 2.27H330c.2-2.51 2.27-4 5-4 3.06 0 4.82 1.47 4.77 5v2.84a22.09 22.09 0 0 0 .33 4.27h-2.2a10.23 10.23 0 0 1-.2-1.56 4.27 4.27 0 0 1-4 1.85c-2.4 0-4.22-1.32-4.22-3.48-.07-2.94 3.32-3.68 7.92-4.16zm-5.5 4.09c0 1.08.86 1.76 2.24 1.76a3 3 0 0 0 3.37-3.3v-.86c-3.68.35-5.61.86-5.61 2.4zm18.79-1.87h-5.77v5.15h-2.29v-11.89h2.29v4.86h5.77v-4.86H353v11.84h-2.29zm7.87-.11v5.21h-2.29v-11.84h2.29v4.8H360l3.61-4.8h2.66l-4.47 5.66 4.86 6.18h-2.75l-4-5.21zm15.14 5.21h-2.29v-10h-4.18v-1.83h10.63v1.83h-4.16zm5.47-7.04h7.08v2.11h-7.08zm20.09-6.78h-7.61v13.82h-2.51v-16h12.63v16h-2.51zm16.33 10.35a5.22 5.22 0 0 1-5.32 3.76c-3.83 0-5.9-2.79-5.9-6.23 0-3.67 2.46-6.12 5.83-6.12 3.65 0 5.79 3 5.54 6.84h-9c.22 2.18 1.61 3.54 3.45 3.54a3 3 0 0 0 3.1-1.8zm-2.22-3.54a3.13 3.13 0 0 0-3.19-3.17c-1.78 0-3.1.92-3.41 3.17zm9.89 7.01H421v-10h-4.18v-1.83h10.63v1.83h-4.16zm16.44-3.47a5.22 5.22 0 0 1-5.32 3.76c-3.83 0-5.9-2.79-5.9-6.23 0-3.67 2.46-6.12 5.83-6.12 3.65 0 5.79 3 5.54 6.84h-9c.22 2.18 1.61 3.54 3.45 3.54a3 3 0 0 0 3.1-1.8zm-2.22-3.54a3.13 3.13 0 0 0-3.19-3.17c-1.78 0-3.1.92-3.41 3.17zm6.92-3.09a4.06 4.06 0 0 1 3.7-2c2.75 0 5.1 2.31 5.1 6.16s-2.35 6.18-5.1 6.18a4.06 4.06 0 0 1-3.7-2V174h-2.29v-15.74h2.29zm6.36 4.2c0-2.66-1.3-4.25-3.19-4.25s-3.26 1.32-3.26 4.25 1.5 4.27 3.26 4.27 3.19-1.6 3.19-4.26zm9.84 6.19c-3.08 0-5.63-2.18-5.63-6.6v-1.21c0-4.27 1.76-7 6.25-7.83l4-.7v2l-3.89.75c-2.51.48-4.07 1.56-4.4 4.49a4.48 4.48 0 0 1 4.09-2.31c2.73 0 5.08 1.89 5.08 5.61s-2.56 5.8-5.5 5.8zm0-9.53c-1.74 0-3.28 1.19-3.28 3.72s1.36 3.89 3.26 3.89 3.08-1.41 3.08-3.87-1.3-3.74-3.02-3.74zm7.23 11.27h.9c1.23 0 1.76-.09 2.33-1.78l.09-.26-4.27-11.82h2.53l2.86 8.82 2.79-8.82h2.38l-4.18 12.1c-1 2.79-1.67 3.59-4.33 3.59h-1.1zM481.28 160a4.06 4.06 0 0 1 3.7-2c2.75 0 5.1 2.31 5.1 6.16s-2.35 6.18-5.1 6.18a4.06 4.06 0 0 1-3.7-2V174H479v-15.74h2.29zm6.36 4.2c0-2.66-1.3-4.25-3.19-4.25s-3.26 1.32-3.26 4.25 1.5 4.27 3.26 4.27 3.18-1.6 3.18-4.26zm7.1 5.9h-2.29v-11.84h7.79v1.83h-5.5z" fill="#ff5b22"/><path d="M108.83 416.34h-5.95l-.17 3.88c-.29 6.82-1.38 11.36-5.07 11.36h-.85v-2.48h.34c2.31 0 2.74-4.3 3-9.76l.22-5.37h11.26v17.6h-2.77zm14.57 7.17v-.27c0-2.31-1.21-3.08-2.82-3.08a2.51 2.51 0 0 0-2.84 2.5h-2.55c.22-2.77 2.5-4.44 5.49-4.44 3.37 0 5.32 1.63 5.27 5.54v3.13a24.34 24.34 0 0 0 .36 4.71h-2.43a11.24 11.24 0 0 1-.22-1.72c-.78 1.31-2.26 2-4.37 2-2.65 0-4.66-1.46-4.66-3.84-.05-3.15 3.69-4.04 8.77-4.53zm-6.07 4.49c0 1.19.95 1.94 2.48 1.94 2.09 0 3.71-1 3.71-3.64v-.95c-4.06.41-6.19.97-6.19 2.65zm17.53 3.59h-2.52v-11h-4.61v-2h11.73v2h-4.59zm17.5-9.71a2.89 2.89 0 0 1-1.77 2.82 3 3 0 0 1 2.31 3c0 2.77-2.14 3.86-5 3.86h-6.26v-13.03h5.9c2.66 0 4.82.68 4.82 3.35zm-2.57.32c0-1.33-1-1.65-2.5-1.65h-3.13v3.4h3.18c1.5-.01 2.45-.42 2.45-1.76zm-2.26 7.38c1.82 0 2.77-.56 2.77-1.89s-.95-1.82-2.82-1.82h-3.33v3.71zm8.04-11.05H158V428l6.38-9.44h2.48v13.06h-2.48v-9.42l-6.38 9.39h-2.48zm17.22 7.86a3.76 3.76 0 0 1-2.6-3.74c0-2.67 1.82-4.13 4.93-4.13h5.29v13.06h-2.52v-4.52h-2.6l-3.16 4.52h-3zm5.1-1.33v-4.52h-2.57c-1.55 0-2.6.83-2.6 2.28 0 1.65 1.14 2.23 2.65 2.23zM99.66 285.8h-8v-2.33h8c-.36-3.4-2.55-5.49-5.46-5.49a4.6 4.6 0 0 0-4.88 3.74h-2.77a7.2 7.2 0 0 1 7.5-6c5.32 0 8.47 3.69 8.47 9.1s-3.08 9.13-8.35 9.13c-4.2 0-7-2.43-7.7-6h2.73c.56 2.55 2.45 3.74 5 3.74 2.99-.08 5.2-2.27 5.46-5.89zm14.28-.8a3.16 3.16 0 0 0-3.25-2.5c-1.82 0-3.5 1.43-3.5 4.61s1.7 4.69 3.5 4.69a3.29 3.29 0 0 0 3.35-2.5h2.55a5.93 5.93 0 0 1-5.95 4.66c-3.76 0-6.14-2.89-6.14-6.82s2.45-6.8 6.31-6.8a5.62 5.62 0 0 1 5.66 4.66zm10.83 8.6h-2.52v-11h-4.61v-2h11.73v2h-4.59zm12.12.31c-3.08 0-6.34-2.09-6.34-6.8s3.25-6.82 6.34-6.82 6.36 2.09 6.36 6.82-3.25 6.8-6.36 6.8zm3.69-6.8c0-3.25-1.77-4.69-3.69-4.69s-3.67 1.38-3.67 4.69 1.77 4.66 3.67 4.66 3.69-1.48 3.69-4.65zm14.2.81h-6.36v5.68h-2.52v-13.06h2.52v5.37h6.36v-5.37h2.52v13.06h-2.52zm6.22-7.38h2.48V290l6.38-9.44h2.48v13.04h-2.48v-9.42l-6.38 9.42H161zm17.17 7.86a3.76 3.76 0 0 1-2.6-3.74c0-2.67 1.82-4.13 4.93-4.13h5.29v13.07h-2.52v-4.52h-2.6l-3.16 4.52h-3zm5.1-1.33v-4.52h-2.57c-1.55 0-2.6.83-2.6 2.28 0 1.65 1.14 2.23 2.65 2.23zm10.9-239.77c0 4.15-2.91 7.14-7.79 7.38v2.09h-2.77v-2.09c-4.88-.22-7.82-3.25-7.82-7.5s2.94-7.21 7.82-7.45v-2.19h2.77v2.18c4.88.28 7.79 3.28 7.79 7.58zm-15.54 0c0 3.13 2.06 5 5 5.17V42a5 5 0 0 0-5 5.25zm12.7 0a5 5 0 0 0-5-5.27v10.39a5 5 0 0 0 5-5.17zm5.88-4.3h2.48v9.44l6.38-9.44h2.48v13.11h-2.48v-9.42l-6.38 9.42h-2.48zm23.89 7.43h-6.36v5.68h-2.52V43h2.52v5.37h6.36V43h2.52v13.11h-2.52zm14.28 5.68v-11h-4.05l-.12 2.45c-.27 5.49-1.41 8.59-4.81 8.59h-.46v-2h.27c1.55 0 2.33-2 2.57-7L229 43h8.93v13.11zm8.38-5.2a3.76 3.76 0 0 1-2.6-3.74c0-2.67 1.82-4.13 4.93-4.13h5.29v13.07h-2.52v-4.52h-2.6l-3.16 4.52h-3zm5.1-1.33v-4.52h-2.57c-1.55 0-2.6.83-2.6 2.28 0 1.65 1.14 2.23 2.65 2.23zm15.05.85h-6.36v5.68H255V43h2.52v5.37h6.36V43h2.52v13.11h-2.52zm16.51 8.79v-3.11h-9.3v3.11h-2.38v-5.13h.63c1.34 0 2-1.94 2.16-6.87l.17-4.17h9.23v11h1.87v5.12zm-6.36-14.15l-.17 2.93c-.17 3-.58 5-1.6 6.12h6.12v-9zm11.3-2.07h2.48v9.44l6.38-9.44h2.48v13.11h-2.48v-9.42l-6.38 9.42h-2.48zm17.21 7.91a3.76 3.76 0 0 1-2.6-3.74C300 44.5 301.8 43 304.9 43h5.29v13.11h-2.52v-4.52h-2.6l-3.16 4.52h-3zm5.1-1.33v-4.52h-2.57c-1.55 0-2.6.83-2.6 2.28 0 1.65 1.14 2.23 2.65 2.23zm-74.8 278.26c4.66 0 9 1.23 9 6.37a6.36 6.36 0 0 1-2.8 5.5 6 6 0 0 1 3.82 6c0 5.39-4.13 7.49-9.28 7.49h-10.09v-25.36zm.49 10.75c2.73 0 4.48-1.16 4.48-3.88 0-2.42-1.82-3.57-4.48-3.57h-5.85v7.46zm.35 11.34c3.4 0 5.08-1.51 5.08-4.2s-1.68-4.06-5.29-4.06h-6v8.26zm29.47-2.24c-.87 3.12-3.68 6-8.47 6-6.09 0-9.38-4.45-9.38-9.91 0-5.85 3.92-9.73 9.28-9.73 5.81 0 9.21 4.76 8.82 10.89h-14.36c.35 3.47 2.56 5.64 5.5 5.64 2.63 0 4.17-1.08 4.94-2.87zm-3.53-5.69a5 5 0 0 0-5.08-5c-2.83 0-4.94 1.47-5.43 5zm19.25 11.22v-15.93H273l-.17 3.54c-.39 7.91-2 12.39-6.93 12.39h-.67v-2.91h.38c2.24 0 3.36-2.83 3.71-10l.28-5.88h12.88v18.83zm8.88-18.84h3.57V348l9.21-13.62h3.57v18.83h-3.57v-13.58l-9.21 13.58h-3.57zm25.27 10.54v8.3h-3.64v-18.84h3.64V342h2.31l5.74-7.63h4.24l-7.11 9 7.74 9.84h-4.37l-6.34-8.3zm15.89-10.54h3.57V348l9.21-13.62h3.57v18.83h-3.57v-13.58l-9.21 13.58h-3.57zm21.63 0h3.57V348l9.21-13.62h3.57v18.83h-3.57v-13.58l-9.21 13.58h-3.57zm2.8-6.55h2.77c.14 1.19.94 2 2.87 2s2.8-.84 2.94-2h2.73c-.25 2.28-1.72 4.24-5.71 4.24s-5.39-1.96-5.6-4.23zm48.06 25.39h-4v-11.38H384.7v11.38h-4v-25.38h4v10.64h12.74v-10.64h4zm13.3.45c-4.45 0-9.14-3-9.14-9.8s4.69-9.84 9.14-9.84 9.17 3 9.17 9.84-4.69 9.8-9.17 9.8zm5.32-9.8c0-4.69-2.56-6.76-5.32-6.76s-5.29 2-5.29 6.76 2.56 6.72 5.29 6.72 5.27-2.13 5.27-6.72zm23.13-4.66a4.16 4.16 0 0 1-2.56 4.06 4.26 4.26 0 0 1 3.33 4.38c0 4-3.08 5.57-7.21 5.57h-9v-18.84h8.51c3.82 0 6.93.98 6.93 4.83zm-3.71.46c0-1.92-1.4-2.38-3.61-2.38h-4.52v4.9h4.59c2.18 0 3.54-.6 3.54-2.52zm-3.26 10.64c2.63 0 4-.8 4-2.73s-1.37-2.62-4.06-2.62h-4.8v5.36zm15.23 2.91h-3.64v-18.84h12.39v2.91h-8.75zm19.46.45c-4.45 0-9.14-3-9.14-9.8s4.69-9.84 9.14-9.84 9.17 3 9.17 9.84-4.69 9.8-9.17 9.8zm5.32-9.8c0-4.69-2.56-6.76-5.32-6.76s-5.29 2-5.29 6.76 2.56 6.72 5.29 6.72 5.32-2.13 5.32-6.72zm11.13-6.72a6.45 6.45 0 0 1 5.88-3.12c4.38 0 8.12 3.67 8.12 9.8s-3.75 9.84-8.12 9.84a6.46 6.46 0 0 1-5.88-3.12v8.79h-3.64v-25h3.64zm10.12 6.69c0-4.24-2.06-6.76-5.08-6.76-2.8 0-5.18 2.1-5.18 6.76s2.38 6.79 5.18 6.79c3.01 0 5.08-2.56 5.08-6.8zm15.36 9.83c-4.45 0-9.14-3-9.14-9.8s4.69-9.84 9.14-9.84 9.17 3 9.17 9.84-4.69 9.8-9.17 9.8zm5.32-9.8c0-4.69-2.56-6.76-5.32-6.76s-5.29 2-5.29 6.76 2.56 6.72 5.29 6.72 5.32-2.13 5.32-6.72zm22.58 13.83v-4.48h-13.41v4.48h-3.43v-7.39h.91c1.92 0 2.83-2.8 3.12-9.91l.25-6h13.3v15.93h2.7v7.39zm-9.17-20.41l-.25 4.2c-.24 4.34-.84 7.28-2.31 8.82h8.82v-13z" fill="#635c4b"/><path d="M641.64 483.55V497h-2.46v-16h4l4 13 4-13h4v16h-2.46v-13.45L648.48 497h-2.6zm21.91 13.71c-2.79 0-5.74-1.89-5.74-6.16s2.95-6.18 5.74-6.18 5.77 1.89 5.77 6.18-2.95 6.16-5.77 6.16zm3.34-6.16c0-2.95-1.61-4.25-3.34-4.25s-3.32 1.25-3.32 4.25 1.61 4.22 3.32 4.22 3.34-1.32 3.34-4.22zm12.46-1.96a2.86 2.86 0 0 0-2.95-2.27c-1.65 0-3.17 1.3-3.17 4.18s1.54 4.25 3.17 4.25a3 3 0 0 0 3-2.27h2.31a5.37 5.37 0 0 1-5.39 4.22c-3.41 0-5.57-2.62-5.57-6.18s2.22-6.16 5.72-6.16a5.09 5.09 0 0 1 5.13 4.22zm6.95 2.62V497H684v-11.86h2.29v4.8h1.45l3.61-4.8H694l-4.47 5.66 4.86 6.18h-2.75l-4-5.21zm19.7-3.59a2.62 2.62 0 0 1-1.61 2.55 2.68 2.68 0 0 1 2.09 2.75c0 2.51-1.94 3.5-4.53 3.5h-5.68v-11.83h5.35c2.43 0 4.38.61 4.38 3.03zm-2.33.29c0-1.21-.88-1.5-2.27-1.5h-2.84V490h2.88c1.38 0 2.24-.33 2.24-1.54zm-2 6.69c1.65 0 2.51-.51 2.51-1.72s-.86-1.65-2.55-1.65h-3v3.37zm14.42-5.5v-.24c0-2.09-1.1-2.79-2.55-2.79a2.27 2.27 0 0 0-2.57 2.27h-2.31c.2-2.51 2.27-4 5-4 3.06 0 4.82 1.47 4.77 5v2.84a22.08 22.08 0 0 0 .33 4.27h-2.2a10.23 10.23 0 0 1-.2-1.56 4.27 4.27 0 0 1-4 1.85c-2.4 0-4.22-1.32-4.22-3.48-.04-2.91 3.35-3.68 7.95-4.16zm-5.5 4.09c0 1.08.86 1.76 2.24 1.76a3 3 0 0 0 3.37-3.3v-.86c-3.68.35-5.62.86-5.62 2.4z" fill="#ff5b22"/><text transform="matrix(.91 0 0 1 4 18.97)" font-size="22" fill="#edecea" font-family="SuisseIntl-Book, Suisse Int'l">500<tspan x="0" y="25">км</tspan></text><circle cx="380.23" cy="307.76" r="10" fill="#635c4b"/><path fill="none" stroke="#635c4b" stroke-miterlimit="10" d="M380.23 307.76L116.6 87.57"/><path fill="none" stroke="#edecea" stroke-miterlimit="10" d="M116.6 87.57L53.9 35.19M0 60.01h54"/></g></svg>