<svg xmlns="http://www.w3.org/2000/svg" viewBox="0 0 93.5 79.63"><g fill="#fff" data-name="Слой 2"><path d="M92.36 60.75H66.83a1.15 1.15 0 0 0-1.15 1.15 15.44 15.44 0 0 1-30.87 0 1.15 1.15 0 0 0-1.15-1.15H8.13a1.15 1.15 0 1 0 0 2.3h24.41a17.74 17.74 0 0 0 35.4 0h24.42a1.15 1.15 0 1 0 0-2.3zM29 54.13a1.51 1.51 0 0 0 .8.22c1 0 2.58-.84 5-2.67a92.93 92.93 0 0 0 8.92-8 92.87 92.87 0 0 0 8-8.92c2.37-3.13 3.08-4.78 2.44-5.8l-.06-.1-.1-.12L29.57 4.36l-4-4a1.19 1.19 0 0 0-1.63 0L.34 23.89a1.15 1.15 0 0 0 0 1.63l28.41 28.42a1.14 1.14 0 0 0 .25.19zm-.14-3.32L6.81 28.74 28.76 6.8l22.07 22.07a24.14 24.14 0 0 0-3 2 92.91 92.91 0 0 0-8.92 8 92.61 92.61 0 0 0-8 8.92 24 24 0 0 0-2.03 3.02zm13.24-8.72a68.91 68.91 0 0 1-10.9 9.3 68.76 68.76 0 0 1 9.3-10.9 68.8 68.8 0 0 1 10.9-9.3 68.85 68.85 0 0 1-9.3 10.9zM24.72 2.76l2.41 2.41L5.19 27.12l-2.41-2.41z"/><path d="M39.44 33.16a4.59 4.59 0 0 0 0-8.86 4.59 4.59 0 0 0-6.27-6.3 4.59 4.59 0 0 0-8.86 0A4.59 4.59 0 0 0 18 24.3a4.59 4.59 0 0 0 0 8.86 4.59 4.59 0 0 0 6.26 6.26 4.59 4.59 0 0 0 8.86 0 4.59 4.59 0 0 0 6.26-6.26zm.6-5.82a2.3 2.3 0 0 1-2.57 3.58l-2.4-.81-1.49-.74a5 5 0 0 0 0-.64 4.91 4.91 0 0 0 0-.64l1.49-.74 2.4-.81a2.3 2.3 0 0 1 2.53.79zm-13.13 3.22a2.59 2.59 0 1 1 3.66 0 2.57 2.57 0 0 1-3.66 0zm8.83-10.81a2.3 2.3 0 0 1 .71 4.34l-2.27 1.12-1.58.53a4.83 4.83 0 0 0-.42-.48 4.9 4.9 0 0 0-.48-.42l.53-1.57L33.37 21a2.3 2.3 0 0 1 2.37-1.25zm-8.4-2.32A2.3 2.3 0 0 1 30.92 20l-.81 2.4-.74 1.49a4.93 4.93 0 0 0-1.27 0l-.74-1.49-.8-2.4a2.3 2.3 0 0 1 .79-2.57zm-7.58 4.29a2.3 2.3 0 0 1 4.35-.72l1.13 2.27.53 1.57a4.37 4.37 0 0 0-.9.9l-1.58-.53L21 24.1a2.3 2.3 0 0 1-1.23-2.37zm-2.32 8.4A2.3 2.3 0 0 1 20 26.55l2.4.81 1.49.74a4.44 4.44 0 0 0 0 1.27l-1.49.74-2.4.81a2.3 2.3 0 0 1-2.56-.8zm4.3 7.58a2.3 2.3 0 0 1-.74-4.34l2.27-1.12 1.58-.53a4.37 4.37 0 0 0 .9.9l-.53 1.57-1.13 2.27a2.3 2.3 0 0 1-2.35 1.25zm8.4 2.3a2.3 2.3 0 0 1-3.58-2.57l.81-2.4.74-1.49a4.42 4.42 0 0 0 1.27 0l.74 1.49.81 2.4a2.3 2.3 0 0 1-.79 2.57zm7.58-4.3a2.3 2.3 0 0 1-4.35.71l-1.12-2.27-.53-1.57a4.37 4.37 0 0 0 .9-.9l1.58.53 2.27 1.13a2.3 2.3 0 0 1 1.25 2.4zm9.63 10.52a.82.82 0 0 0 .15-.22 1.33 1.33 0 0 0 .11-.2 1.5 1.5 0 0 0 .06-.21 1 1 0 0 0 0-.22 1.14 1.14 0 0 0-.34-.82 1.18 1.18 0 0 0-1-.32l-.22.07-.2.1-.18.14a1.16 1.16 0 0 0 0 1.63 1.38 1.38 0 0 0 .18.14l.2.1.22.07h.44l.21-.07.2-.1a1 1 0 0 0 .17-.09zm.57 7.15a1.14 1.14 0 0 0 1.62 0 1.14 1.14 0 0 0 0-1.63 1.15 1.15 0 0 0-2 .82 1.16 1.16 0 0 0 .38.81zm.81 8.19a1.15 1.15 0 0 0 .81-2 1.18 1.18 0 0 0-1.62 0 1.14 1.14 0 0 0 0 1.63 1.15 1.15 0 0 0 .81.37zm-4.16-9.46a1.14 1.14 0 0 0-.34-.82 1.17 1.17 0 0 0-1-.32L43 51l-.2.1a1.15 1.15 0 0 0-.17 1.77l.17.14.2.1.21.07h.22a1.15 1.15 0 0 0 1.15-1.14zm-.71 7.13a.78.78 0 0 0 .11.2.8.8 0 0 0 .14.18 1.15 1.15 0 0 0 1.62 0 .8.8 0 0 0 .14-.18.78.78 0 0 0 .11-.2.94.94 0 0 0 .06-.22 1 1 0 0 0 0-.22 1.14 1.14 0 0 0-.34-.81 1.19 1.19 0 0 0-1.62 0 .79.79 0 0 0-.14.17 1 1 0 0 0-.11.2 1.22 1.22 0 0 0-.09.44 1.29 1.29 0 0 0 .09.44zm1.46 9.06l.2.1.21.06a1 1 0 0 0 .23 0 1.16 1.16 0 0 0 .81-.33 1.13 1.13 0 0 0 .14-.18 1 1 0 0 0 .1-.2 1.12 1.12 0 0 0 .09-.44 1.15 1.15 0 0 0-1.38-1.13l-.21.07-.2.1a1 1 0 0 0-.17.14 1.16 1.16 0 0 0 0 1.63zm4.85 1.62l.2.1.21.06a1 1 0 0 0 .23 0h.22l.21-.06.2-.1a1.5 1.5 0 0 0 .18-.14 1.16 1.16 0 0 0 .33-.82 1 1 0 0 0 0-.22 1 1 0 0 0-.06-.21 1.46 1.46 0 0 0-.1-.2l-.14-.17a1.09 1.09 0 0 0-.18-.14l-.2-.1-.27-.09a1.19 1.19 0 0 0-.45 0l-.21.07-.2.1-.17.14a1.11 1.11 0 0 0-.14.17 1.38 1.38 0 0 0-.17.41 1.54 1.54 0 0 0 0 .22 1.17 1.17 0 0 0 .34.82zm2.72-11.47h.22l.21-.07.2-.1.17-.14a1.14 1.14 0 0 0 0-1.63l-.17-.14-.2-.1-.21-.07a1.18 1.18 0 0 0-1 .32 1.16 1.16 0 0 0-.33.82 1.19 1.19 0 0 0 .09.44 1.06 1.06 0 0 0 .1.2 1.6 1.6 0 0 0 .14.18 1.16 1.16 0 0 0 .78.29z"/></g></svg>