<svg xmlns="http://www.w3.org/2000/svg" viewBox="0 0 58 89.13"><path d="M56.84 45.43h-3.72a10.45 10.45 0 0 0-8.78-4.55 11 11 0 0 0-2.4.27A13.21 13.21 0 0 0 32 35.27c.07-3.36-.1-7-1.44-10.09a12.6 12.6 0 0 1 3.95-6.69 5.42 5.42 0 0 0 3.45 1.19H38a10.35 10.35 0 0 0 6.92-3 12.32 12.32 0 0 0 3.24-8.16A12.26 12.26 0 0 0 45 .42l-.1-.09-.07-.1-.12-.07h-1l-.15.08L43.5.2l-.18.15a21.71 21.71 0 0 1-3.38 2.78c-.57.38-1.16.73-1.78 1.11a30.78 30.78 0 0 0-2.86 1.84A9.25 9.25 0 0 0 31.69 11a7.38 7.38 0 0 0 1.14 5.86 17.38 17.38 0 0 0-3.91 5.54v-.07a12.59 12.59 0 0 0-1.15-1.26 9.3 9.3 0 0 0-.7-8.48c-1.43-2.17-3.63-3.52-5.76-4.82S16.94 5.13 16 3a1.16 1.16 0 0 0-.17-.25 1.12 1.12 0 0 0-.21-.17h-.07a1.1 1.1 0 0 0-.27-.11 1.15 1.15 0 0 0-.28 0h-.08a1.23 1.23 0 0 0-.29.07h-.05a1.24 1.24 0 0 0-.23.13h-.05a1.18 1.18 0 0 0-.2.22v.05a1.16 1.16 0 0 0-.12.25A14.35 14.35 0 0 1 13 5.32a16.39 16.39 0 0 0-.87 2.4 18.8 18.8 0 0 0-.65 3.52A11.32 11.32 0 0 0 16 20.62a11 11 0 0 0 7 1.92c1 0 1.92-.06 2.83-.12A10.83 10.83 0 0 1 27 23.77c2.44 3.08 2.69 7.45 2.61 11.47a13.18 13.18 0 0 0-10.2 5.89A11.66 11.66 0 0 0 14.33 40a11.06 11.06 0 0 0-9.73 5.47H1.16A1.16 1.16 0 0 0 0 46.59v9.3a1.16 1.16 0 0 0 1.16 1.16h3.23l5.91 31.13a1.16 1.16 0 0 0 1.14.95h35.12a1.17 1.17 0 0 0 1.14-.95l5.91-31.12h3.23A1.16 1.16 0 0 0 58 55.89v-9.3a1.16 1.16 0 0 0-1.16-1.16zM43.26 15A8 8 0 0 1 38 17.35a3.19 3.19 0 0 1-1.63-.43c.43-.32.87-.63 1.33-.95.73-.51 1.49-1 2.21-1.63A16.21 16.21 0 0 0 45 4.59a9.06 9.06 0 0 1 .84 3.87A10 10 0 0 1 43.26 15zm-9.32-3.41a7 7 0 0 1 2.76-3.65 28.58 28.58 0 0 1 2.64-1.71c.62-.37 1.25-.75 1.87-1.16s1-.72 1.52-1.1c-.49 3.1-1.81 6.45-4.38 8.59-.64.53-1.32 1-2 1.51s-1.16.81-1.73 1.25a5.31 5.31 0 0 1-.67-3.73zM20.05 9.76c2 1.22 3.89 2.37 5 4.11a7 7 0 0 1 .74 5.62c-.87-.63-1.79-1.21-2.69-1.77a22.93 22.93 0 0 1-4.67-3.5 10.89 10.89 0 0 1-2.86-7.7 22.53 22.53 0 0 0 4.48 3.24zm-2.66 9a9 9 0 0 1-3.56-7.41c0-.19 0-.38.06-.57a13 13 0 0 0 2.88 5 25 25 0 0 0 5.13 3.88l.82.52a8.77 8.77 0 0 1-5.33-1.4zm-3.06 23.53a9.24 9.24 0 0 1 5 1.42 1.16 1.16 0 0 0 1.67-.47 10.78 10.78 0 0 1 9.75-5.71A10.85 10.85 0 0 1 40.34 43a1.16 1.16 0 0 0 1.38.57 8.78 8.78 0 0 1 2.62-.4 8.37 8.37 0 0 1 5.77 2.22H7.4a8.94 8.94 0 0 1 6.93-3.1zm31.27 44.5H12.41L6.76 57.05h44.48zm10.07-32.06H2.33v-7h53.34z" fill="#fff" data-name="Слой 2"/></svg>