<svg xmlns="http://www.w3.org/2000/svg" viewBox="0 0 82 53.3"><g fill="#fff" data-name="Слой 2"><path d="M38.61 26.19a1 1 0 0 0-.11-.19 1.45 1.45 0 0 0-.15-.19 1.25 1.25 0 0 0-1.7 0 1.23 1.23 0 0 0-.35.85 1.2 1.2 0 0 0 2.05.85 1.18 1.18 0 0 0 .35-.85 1.56 1.56 0 0 0 0-.23 1.75 1.75 0 0 0-.09-.24zm5.95 0a1.3 1.3 0 0 0-.11-.21 1.43 1.43 0 0 0-.15-.19 1.21 1.21 0 0 0-1.08-.33l-.23.07a1 1 0 0 0-.2.12l-.19.14a1.36 1.36 0 0 0-.14.19 1 1 0 0 0-.11.21 1.09 1.09 0 0 0-.07.23 1 1 0 0 0 0 .23 1.2 1.2 0 0 0 2.05.85 1.18 1.18 0 0 0 .36-.85 1.57 1.57 0 0 0 0-.23 1.69 1.69 0 0 0-.13-.23zm5.96 0a1.4 1.4 0 0 0-.11-.21 1.11 1.11 0 0 0-.15-.19 1 1 0 0 0-.18-.14 1 1 0 0 0-.2-.12l-.23-.07a1.21 1.21 0 0 0-1.08.33 1.09 1.09 0 0 0-.15.19 1.37 1.37 0 0 0-.11.21 1.61 1.61 0 0 0-.07.23 1 1 0 0 0 0 .23 1.2 1.2 0 0 0 2.41 0 1 1 0 0 0 0-.23 1.59 1.59 0 0 0-.13-.23zm3.99-.39a1 1 0 0 0-.15.19 1.36 1.36 0 0 0-.11.21 1.73 1.73 0 0 0-.07.23 1.08 1.08 0 0 0 0 .23 1.18 1.18 0 0 0 .35.85 1.14 1.14 0 0 0 .39.26 1.2 1.2 0 0 0 1.66-1.11 1.23 1.23 0 0 0-.35-.85 1.25 1.25 0 0 0-1.72-.01zm7.92.39a1 1 0 0 0-.11-.21 1.4 1.4 0 0 0-.14-.19 1.25 1.25 0 0 0-1.7 0 1.48 1.48 0 0 0-.15.19 1.37 1.37 0 0 0-.11.21 1.75 1.75 0 0 0-.07.23 1.59 1.59 0 0 0 0 .23 1.21 1.21 0 0 0 1.2 1.2 1.2 1.2 0 0 0 1.2-1.2 1 1 0 0 0 0-.23 1.07 1.07 0 0 0-.12-.23z"/><path d="M69 2v-.89A1.2 1.2 0 0 0 67.75 0h-36a1.2 1.2 0 0 0-1.2 1.11l-1.77 22-10.2-8.17-4.51-11.26a1.2 1.2 0 0 0-1.82-.52L.49 11.71a1.2 1.2 0 0 0-.06 1.9l9.35 7.77 16.57 30.77a1.09 1.09 0 0 0 .09.13 1.19 1.19 0 0 0 1.19 1h44.24a1.2 1.2 0 0 0 1.2-1.3l-.18-2.2A10.47 10.47 0 0 0 82 39.44V16.06A14.1 14.1 0 0 0 69 2zM32 12.63h35.47l.15 1.8H31.88zM66.64 2.4l.63 7.82H32.22l.63-7.82zM12.41 6l3.69 9.2-5.32 3.88-7.62-6.33zm-.12 15l5.25-3.82 11 8.81-1.77 21.9zm16.65 29.89L31 25.51l.7-8.68h36.11l2.55 31.63a1.22 1.22 0 0 0 0 .24 1.2 1.2 0 0 0 .08.41l.14 1.79zm50.65-11.45a8.06 8.06 0 0 1-6.9 8L69.22 4.46a11.7 11.7 0 0 1 10.37 11.6z"/></g></svg>