<svg xmlns="http://www.w3.org/2000/svg" viewBox="0 0 56.82 90.92"><path d="M56.67 89.17a11.84 11.84 0 0 0-10.32-5.69 12.55 12.55 0 0 0-2.89.34A15 15 0 0 0 32.5 77c1.92-3.28 5.61-10.83 3.54-17.57a34.44 34.44 0 0 0-3.75-7.79l-.07-.12v-.09a6.27 6.27 0 0 1 .46-6.1 13.63 13.63 0 0 1 4.68-3.53 21.34 21.34 0 0 0 4-2.67 9.79 9.79 0 0 1-2.84 6.65 1.13 1.13 0 1 0 1.59 1.61 11.76 11.76 0 0 0 2.68-4.13v.17A8.06 8.06 0 0 1 39.35 50a6.86 6.86 0 0 1-3.87 1.09 1.13 1.13 0 0 0 0 2.26 9 9 0 0 0 5.11-1.52 10.36 10.36 0 0 0 4.4-8.41 17.19 17.19 0 0 0-.47-3.23A14.94 14.94 0 0 0 43.9 38a12.94 12.94 0 0 1-.61-1.88 1.16 1.16 0 0 0-.1-.24v-.05a1.11 1.11 0 0 0-.19-.23 1.16 1.16 0 0 0-.23-.14 1.17 1.17 0 0 0-.29-.08h-.07a1.18 1.18 0 0 0-.28 0 1.18 1.18 0 0 0-.27.1h-.06a1.13 1.13 0 0 0-.22.16 1.13 1.13 0 0 0-.18.24c-1 1.83-2.9 2.92-4.95 4.06A15.48 15.48 0 0 0 30.81 44a7.83 7.83 0 0 0-1.2 2.64 25.47 25.47 0 0 1-2-10.09 5 5 0 0 0 1.4-3 30.5 30.5 0 0 0 .55-3.7 30.55 30.55 0 0 0 1.77 3.29c1 1.58 1.83 2.3 2.76 2.41a2.84 2.84 0 0 0 2.3-1.13 5.43 5.43 0 0 1 .85-.74 5.38 5.38 0 0 1 1-.46 2.84 2.84 0 0 0 2-1.6c.3-.88 0-1.94-1-3.52a30.54 30.54 0 0 0-2.23-3 30.47 30.47 0 0 0 3.58 1.08c1.83.41 2.92.34 3.65-.25a2.84 2.84 0 0 0 .83-2.43 5.43 5.43 0 0 1 .08-1.12 5.4 5.4 0 0 1 .4-1 2.84 2.84 0 0 0 .29-2.55c-.41-.84-1.37-1.37-3.2-1.78a30.72 30.72 0 0 0-3.7-.55 30.61 30.61 0 0 0 3.29-1.77c1.58-1 2.3-1.83 2.41-2.76a2.85 2.85 0 0 0-1.14-2.3 5.38 5.38 0 0 1-.74-.85 5.45 5.45 0 0 1-.46-1 2.85 2.85 0 0 0-1.6-2c-.88-.3-1.94 0-3.52 1a30.46 30.46 0 0 0-3 2.23 30.47 30.47 0 0 0 1.08-3.58c.41-1.83.34-2.92-.25-3.65A2.84 2.84 0 0 0 32.59 1a5.39 5.39 0 0 1-1.12-.1 5.36 5.36 0 0 1-1.05-.4 2.84 2.84 0 0 0-2.56-.29c-.84.41-1.37 1.37-1.78 3.2a30.5 30.5 0 0 0-.55 3.7 30.59 30.59 0 0 0-1.77-3.29c-1-1.58-1.83-2.3-2.76-2.41a2.86 2.86 0 0 0-2.3 1.14 5.4 5.4 0 0 1-.85.74 5.34 5.34 0 0 1-1 .46 2.85 2.85 0 0 0-2 1.6c-.3.88 0 1.94 1 3.52a30.64 30.64 0 0 0 2.23 3 30.67 30.67 0 0 0-3.58-1.08c-1.83-.41-2.92-.34-3.65.25a2.85 2.85 0 0 0-.85 2.42 5.38 5.38 0 0 1-.08 1.12 5.42 5.42 0 0 1-.4 1.05 2.84 2.84 0 0 0-.29 2.55c.41.84 1.37 1.37 3.2 1.78a30.5 30.5 0 0 0 3.7.55 30.55 30.55 0 0 0-3.29 1.77c-1.58 1-2.3 1.83-2.41 2.76a2.85 2.85 0 0 0 1.14 2.3 5.41 5.41 0 0 1 .74.85 5.43 5.43 0 0 1 .46 1 2.84 2.84 0 0 0 1.6 2c.88.3 1.94 0 3.52-1a30.6 30.6 0 0 0 3-2.23 30.56 30.56 0 0 0-1.08 3.58c-.41 1.83-.34 2.92.25 3.65a2.84 2.84 0 0 0 2.43.83 5.48 5.48 0 0 1 1.12.08 5.43 5.43 0 0 1 1 .4c.21.1.43.2.67.28.2 7.84 2.65 12 5 16 .68 1.15 1.35 2.26 2 3.44l-.27-.2c-2.48-1.63-5.41-2-8.25-2.45-3-.43-5.88-.83-7.94-2.64a1.15 1.15 0 0 0-.26-.17 1.09 1.09 0 0 0-.27-.07h-.07a1.12 1.12 0 0 0-.28 0h-.05a1.16 1.16 0 0 0-.26.09 1.1 1.1 0 0 0-.24.18 1.14 1.14 0 0 0-.16.21v.05a1.11 1.11 0 0 0-.1.28v.06a1.1 1.1 0 0 0 0 .26 16.9 16.9 0 0 1 .14 2.57 18.78 18.78 0 0 0 .17 2.92 21.62 21.62 0 0 0 .92 4 12.91 12.91 0 0 0 8.91 7.79 8.93 8.93 0 0 0 2.26.28 13.19 13.19 0 0 0 4.35-.82 1.13 1.13 0 1 0-.88-1.94 9.06 9.06 0 0 1-5.29.49 10.62 10.62 0 0 1-7.35-6.38 12.49 12.49 0 0 1-.45-1.63 14.89 14.89 0 0 0 5.91 4.71 1.13 1.13 0 1 0 .9-2.07 12.86 12.86 0 0 1-6.88-7.48 24 24 0 0 0 6.64 1.59c2.71.38 5.28.75 7.33 2.1a8.35 8.35 0 0 1 3.51 7.34v.09c-.56 5.16-3.43 10-4.38 11.53a15.08 15.08 0 0 0-12.33 6.93 13.28 13.28 0 0 0-6-1.43 12.51 12.51 0 0 0-11.5 6.9 1.13 1.13 0 0 0 2 1 10.25 10.25 0 0 1 9.39-5.6 10.93 10.93 0 0 1 5.87 1.68 1.13 1.13 0 0 0 1.63-.5 12.71 12.71 0 0 1 11.5-6.74 12.8 12.8 0 0 1 11.37 6.5 1.13 1.13 0 0 0 1.34.55 10.39 10.39 0 0 1 3.1-.48 9.57 9.57 0 0 1 8.36 4.56 1.13 1.13 0 1 0 2-1.13zM37.32 29.4a5 5 0 0 1 .75 1.53 5.6 5.6 0 0 1-.62.25 7.42 7.42 0 0 0-1.46.67 7.3 7.3 0 0 0-1.23 1 6.2 6.2 0 0 1-.49.45A5.08 5.08 0 0 1 33.2 32a36.08 36.08 0 0 1-3.31-7.24 6.74 6.74 0 0 0 2.29-1.46 36.12 36.12 0 0 1 5.14 6.1zm4.82-10.11a5.07 5.07 0 0 1 1.62.55 6 6 0 0 1-.26.62 7.35 7.35 0 0 0-.56 1.54 7.37 7.37 0 0 0-.14 1.6 5.91 5.91 0 0 1 0 .67 5.07 5.07 0 0 1-1.7-.19 36.17 36.17 0 0 1-7.46-2.77 6.8 6.8 0 0 0 .59-2.65 36 36 0 0 1 7.92.62zM38.41 8.72A5 5 0 0 1 39.94 8a6.26 6.26 0 0 1 .25.62 7.36 7.36 0 0 0 .67 1.46 7.4 7.4 0 0 0 1 1.23 5.78 5.78 0 0 1 .45.49A5.09 5.09 0 0 1 41 12.84a36.14 36.14 0 0 1-7.24 3.31 6.82 6.82 0 0 0-.61-1.22 6.72 6.72 0 0 0-.84-1.07 36.15 36.15 0 0 1 6.1-5.14zM28.29 3.9a5 5 0 0 1 .55-1.62 6.11 6.11 0 0 1 .62.26 7.31 7.31 0 0 0 1.54.57 7.36 7.36 0 0 0 1.6.14 5.74 5.74 0 0 1 .67 0A5 5 0 0 1 33.05 5a36.11 36.11 0 0 1-2.77 7.46A6.72 6.72 0 0 0 29 12a6.62 6.62 0 0 0-1.36-.16 36.07 36.07 0 0 1 .65-7.94zm-.78 10.19a4.52 4.52 0 0 1 1 .11 4.41 4.41 0 1 1-1-.11zm-9.78-6.45A5.06 5.06 0 0 1 17 6.11a5.93 5.93 0 0 1 .62-.25 7.26 7.26 0 0 0 1.46-.67 7.32 7.32 0 0 0 1.23-1 6 6 0 0 1 .49-.46A5.06 5.06 0 0 1 21.85 5a36.14 36.14 0 0 1 3.31 7.24 6.73 6.73 0 0 0-2.29 1.46 36.15 36.15 0 0 1-5.14-6.06zm-4.82 10.11a5 5 0 0 1-1.61-.55 6 6 0 0 1 .26-.62 7.4 7.4 0 0 0 .56-1.51 7.37 7.37 0 0 0 .14-1.6 6.05 6.05 0 0 1 0-.67A5 5 0 0 1 14 13a36.13 36.13 0 0 1 7.46 2.78 6.75 6.75 0 0 0-.59 2.65 36.32 36.32 0 0 1-7.96-.68zm3.74 10.56a5.07 5.07 0 0 1-1.53.75 5.9 5.9 0 0 1-.25-.62 7.42 7.42 0 0 0-.68-1.44 7.41 7.41 0 0 0-1-1.23 5.92 5.92 0 0 1-.45-.49A5 5 0 0 1 14 24.19a36.16 36.16 0 0 1 7.24-3.31 6.71 6.71 0 0 0 1.46 2.3 36.13 36.13 0 0 1-6.05 5.13zm7.44 5.62a7.31 7.31 0 0 0-1.6-.14 5.7 5.7 0 0 1-.67 0 5.05 5.05 0 0 1 .19-1.7 36.15 36.15 0 0 1 2.78-7.46 6.75 6.75 0 0 0 2.65.59 36.08 36.08 0 0 1-.67 7.94 5.52 5.52 0 0 1-.52 1.57h-.1c-.16-.06-.38-.16-.54-.23a7.37 7.37 0 0 0-1.53-.57z" fill="#fff" data-name="Слой 2"/></svg>