<svg xmlns="http://www.w3.org/2000/svg" viewBox="0 0 44.71 47.42"><g data-name="Слой 2"><g data-name="2" fill="none" stroke="#fff" stroke-width="1.42"><path d="M10.71 39L12 42.2l2.45-1a7.55 7.55 0 0 0 1.76 1.76l-1 2.45 3.17 1.31 1-2.45a7.5 7.5 0 0 0 2.49 0l1 2.45 3.17-1.31-1-2.45a7.57 7.57 0 0 0 1.76-1.76l2.45 1 1.34-3.2-2.45-1a7.55 7.55 0 0 0 0-2.49l2.45-1-1.31-3.17-2.45 1a7.55 7.55 0 0 0-1.76-1.76l1-2.45-3.17-1.31-1 2.45a7.58 7.58 0 0 0-2.49 0l-1-2.45-3.17 1.31 1 2.45a7.52 7.52 0 0 0-1.76 1.76l-2.45-1-1.31 3.17 2.45 1a7.56 7.56 0 0 0 0 2.49z" stroke-linejoin="round"/><circle cx="20.65" cy="36.77" r="3.33" transform="rotate(-22.5 20.646 36.77)" stroke-linejoin="round"/><path d="M44.71 14.71h-3v2.34a6.68 6.68 0 0 0-2.21.95l-2.36-2.4-3.54 3.54L36 21.5a6.67 6.67 0 0 0-.91 2.21h-3.38v5h3A10.67 10.67 0 0 0 36 30.92l-2.4 2.36 3.54 3.54 2.36-2.36a6.7 6.7 0 0 0 2.21.91v2.34h3m0-8.06a3.5 3.5 0 0 1 0-7" stroke-linejoin="round"/><path stroke-miterlimit="10" d="M20.71 22.71l4-4h3v6"/><path d="M2.71 13.71c0-5.52 1.5-10 8-10h1m-1 3a5 5 0 0 1 9.53-2.12" stroke-linejoin="round"/><path d="M6.71 13.71c0-1.66 2.69-3 6-3h15a4 4 0 0 0 4-4 5.77 5.77 0 0 0-6-6 6 6 0 0 0-6 6m-1 18v-6h-3l-4 4h-3l-1-7h-5l-2 16v2m9-6l-1-5" stroke-linejoin="round"/></g></g></svg>