<svg xmlns="http://www.w3.org/2000/svg" viewBox="0 0 56.5 40.89"><g data-name="Слой 2"><g data-name="500" fill="#fff"><path d="M55.82 0h-5.14a3.13 3.13 0 0 0-2.16.89L38.14 10.8a1.41 1.41 0 0 0-.95-.21l-4.59.63a6.08 6.08 0 0 0-4.13-5.78 1 1 0 0 1-.62-.5 3.37 3.37 0 0 0-3.05-2.09 3.11 3.11 0 0 0-1.49.38.1.1 0 0 1-.13 0A5.32 5.32 0 0 0 18.71.61a5.45 5.45 0 0 0-5 3.56.11.11 0 0 1-.15.06 3.56 3.56 0 0 0-3.8 1.2A4 4 0 0 0 9 8.19a3.07 3.07 0 0 0-2 3v.53a2.87 2.87 0 0 0-.84.12 3.11 3.11 0 0 0-2.08 2.53 3.67 3.67 0 0 0 0 .82l-2.69.37A1.57 1.57 0 0 0 0 16.86a1.72 1.72 0 0 0 .74 1.79l10.92 6.85a6.58 6.58 0 0 0 1 .52l-1.44 1.59A6.41 6.41 0 0 0 7 25.93c-3.8 0-6.85 3.35-6.85 7.48S3.2 40.89 7 40.89s6.81-3.36 6.81-7.48a7.9 7.9 0 0 0-1.55-4.75l2-2.24a6 6 0 0 0 2.34-.16l4-1.09 9.64 8.31a3 3 0 0 0 3.63.33 3.67 3.67 0 0 0 1.7-3.54l-.85-9.44a2.85 2.85 0 0 0 .31-.48l3.69-7.29a1.8 1.8 0 0 0 .18-1L49.41 2a1.84 1.84 0 0 1 1.27-.52h5.14a.72.72 0 0 0 .68-.73.72.72 0 0 0-.68-.75zM12.41 33.41a5.74 5.74 0 0 1-5.45 6 5.74 5.74 0 0 1-5.45-6 5.74 5.74 0 0 1 5.45-6 5.11 5.11 0 0 1 3.33 1.25l-1 1.1A3.78 3.78 0 0 0 7 29a4.27 4.27 0 0 0-4.05 4.45A4.27 4.27 0 0 0 7 37.86a4.27 4.27 0 0 0 4-4.45 4.72 4.72 0 0 0-.76-2.58l1-1.1a6.33 6.33 0 0 1 1.17 3.68zm-2.76 0a2.84 2.84 0 0 1-2.69 3 3 3 0 0 1 0-5.91 2.5 2.5 0 0 1 1.35.4l-1.83 2a.8.8 0 0 0 0 1.06.64.64 0 0 0 1 0l1.83-2a3.16 3.16 0 0 1 .34 1.45zM5.41 14.58a1.67 1.67 0 0 1 1.1-1.34 1.47 1.47 0 0 1 .54-.06 1.16 1.16 0 0 0 .95-.36 1.33 1.33 0 0 0 .37-.94v-.74a1.53 1.53 0 0 1 1.45-1.6h.42v-.61a.54.54 0 0 0 0-.08.64.64 0 0 0 0-.08.62.62 0 0 0 0-.08 2.48 2.48 0 0 1 .42-2.26 2.31 2.31 0 0 1 2.29-.7A1.43 1.43 0 0 0 15 4.77a4.09 4.09 0 0 1 3.71-2.67A4 4 0 0 1 22.06 4a1.38 1.38 0 0 0 1.85.54 1.87 1.87 0 0 1 .89-.23 2 2 0 0 1 1.84 1.29 2.35 2.35 0 0 0 1.48 1.29 4.62 4.62 0 0 1 3.13 4.5L5.39 15a2.06 2.06 0 0 1 .02-.42zm27.81 17.91a1.78 1.78 0 0 1-2.13-.19l-8.8-7.59 11.11-3 .79 8.71a2.16 2.16 0 0 1-.97 2.07zm4.31-20.16l-3.69 7.28a1.24 1.24 0 0 1-.77.64L16.25 24.8a4.88 4.88 0 0 1-3.92-.6L1.45 17.35a.18.18 0 0 1-.08-.2.16.16 0 0 1 .14-.15l35.85-4.94a.15.15 0 0 1 .16.08.18.18 0 0 1 .01.19z"/><path d="M19.65 3.55a3.61 3.61 0 0 0-4.54 2.68.76.76 0 0 0 .45.93.63.63 0 0 0 .2 0 .69.69 0 0 0 .65-.53A2.26 2.26 0 0 1 19.26 5a.67.67 0 0 0 .85-.5.76.76 0 0 0-.46-.95zm-4.43 5.99a2.41 2.41 0 0 0-3.59.45.8.8 0 0 0 .11 1.01.64.64 0 0 0 .42.16.66.66 0 0 0 .53-.28 1.13 1.13 0 0 1 1.68-.21.64.64 0 0 0 1-.12.8.8 0 0 0-.15-1.01z"/></g></g></svg>