<svg xmlns="http://www.w3.org/2000/svg" viewBox="0 0 47.38 46.71"><g data-name="Слой 2"><g data-name="4" fill="none" stroke="#7c6b60" stroke-linejoin="round" stroke-width="1.42"><path d="M29.71 22.71v24m-4-16l4 4m4-4l-4 4m-19-25s10 15.48 10 21a10 10 0 0 1-20 0c0-5.52 10-21 10-21zm0 12v25m-5-17l5 5m4-9l-4 4m10 10h17.64a8.32 8.32 0 1 0 0-16.64h-.05a8.61 8.61 0 0 0-8.59-7.36 8 8 0 0 0-7.95 7.36m-5.37-9.36C19.24 8.24 22.71 3 22.71 3S26.18 8.24 29 13.71"/><circle cx="39.21" cy="5.21" r="4.5"/></g></g></svg>