<svg xmlns="http://www.w3.org/2000/svg" viewBox="0 0 37.94 46.89"><g fill="none" stroke="#fff" stroke-miterlimit="10" stroke-width="1.42" data-name="Слой 2"><path d="M13.74.29l.68 2.53M5.11 5.41l1.85 1.85m-6.78 6.9l2.53.67M.29 24.19l2.53-.67m2.59 9.31l1.85-1.85m25.57 1.55l-1.85-1.85m6.77-6.9l-2.52-.68m2.41-9.36l-2.52.68m-2.59-9.31l-1.85 1.85M23.78.18l-.68 2.53m-5.93 23.37c-3-.69-4.75-4-4.46-5.83.77-5 5.63-6 7.38-9.83 3.38 1.83 5.87 6 4.85 10.16-.69 2.83-4.16 4.29-5.58 4.75m-1.06 4.85c-2.76-5.71 0-10.6 1.49-14.69m3.89 28.69h-2l-2 2h-2l-2-2h-2m-2-7h14m-14 4h14"/><path d="M24.68 35.18v-2a8.23 8.23 0 0 1 2.4-5.73 13.46 13.46 0 0 0 3.6-9.27 12 12 0 0 0-24 0 13.46 13.46 0 0 0 3.6 9.27 8.23 8.23 0 0 1 2.4 5.73v2"/></g></svg>