<svg xmlns="http://www.w3.org/2000/svg" viewBox="0 0 41.42 47.42"><g data-name="Слой 2"><g data-name="4" fill="none" stroke="#fff" stroke-linejoin="round" stroke-width="1.42"><path d="M6.71 27.71h22v19h-22zm24 8h10v11h-12m-28-31h6v31h-6zm10 10v-4h6v4m-5 13v5m4-5v5m4-5v5m4-5v5m9-5v5m4-5v5m-35-30c0-5.52 1.5-10 8-10h1m-1 3a5 5 0 0 1 9.53-2.12"/><path d="M5.71 13.71c0-1.66 2.69-3 6-3h15a4 4 0 0 0 4-4 5.77 5.77 0 0 0-6-6 6 6 0 0 0-6 6m-7 13a13.14 13.14 0 0 1 1.52-7"/><path d="M15.71 19.71c0-1.66 2.69-3 6-3h15a4 4 0 0 0 4-4 5.77 5.77 0 0 0-6-6 6 6 0 0 0-2 .34"/></g></g></svg>