<svg xmlns="http://www.w3.org/2000/svg" viewBox="0 0 47.31 46.24"><g data-name="Слой 2"><g data-name="100" fill="none" stroke="#7c6b60" stroke-miterlimit="10" stroke-width="1.42"><path d="M16.91 45.53H4.76a4 4 0 0 1 0-8.1 3.4 3.4 0 0 1 2.7 1.35v-24.3a3.4 3.4 0 0 0-2.7-1.35 4 4 0 0 0-4 4v24.3m6.7-22.9h9.45m10.8 15.93c3.05-10.17 12.15-12.27 12.15-21.6A12.52 12.52 0 0 0 27.71.71a12.52 12.52 0 0 0-12.15 12.15c0 9.33 9.1 11.43 12.15 21.6"/><ellipse cx="27.72" cy="12.84" rx="4.07" ry="4.03"/><path d="M15.56 45.53h31.05v-27h-8.1"/></g></g></svg>