<svg xmlns="http://www.w3.org/2000/svg" viewBox="0 0 42.42 47.42"><g fill="none" stroke="#fff" stroke-linejoin="round" stroke-width="1.42" data-name="Слой 2"><path d="M24.71 8.71l.02-1-4.02-7h-3l2 7v1m17 4a2 2 0 0 0-2-2H12.27c-.11 0-3.56-3-3.56-3h-2l1 4c-.56.3-1 .59-1 1.12 0 1.58 3.55 1.87 4.56 1.87h8.44v2l-2.86 7h2.86l5-6 1.93-3h8.07a2 2 0 0 0 2-2zm-28 34v-2.5a1.5 1.5 0 0 1 1.5-1.5h7a1.5 1.5 0 0 0 1.5-1.5v-1a1.5 1.5 0 0 1 1.5-1.5h1a1.5 1.5 0 0 0 1.5-1.5v-2a1.5 1.5 0 0 0-1.5-1.5h-7a1.5 1.5 0 0 0-1.5 1.5 1.5 1.5 0 0 1-1.5 1.5h-7.5m20 10v-2a2 2 0 0 1 2-2h5a2 2 0 0 0 2-2 2 2 0 0 0-2-2h-1a2 2 0 0 1-2-2 2 2 0 0 1 2-2h8"/><path d="M.71 46.71c0-11 9.18-19 20.5-19s20.5 8 20.5 19z"/></g></svg>