<svg xmlns="http://www.w3.org/2000/svg" viewBox="0 0 53.47 43.99"><g data-name="Слой 2"><g data-name="3" fill="none" stroke="#fff" stroke-miterlimit="10" stroke-width="1.42"><path d="M23.79 35.82H7.93m10.19-22.65H0m10.18 2.66l-5.93 5.6a1.13 1.13 0 0 0 0 1.63L17 35.82m4.52 3.4l3.73 3.73a1.13 1.13 0 0 0 1.6 0l25.58-25.58a1.13 1.13 0 0 0 0-1.6L37.38.71H26.05L13 13.05"/><path d="M28.32 4.11l3.39 3.39 3.4-3.39m-7.93 7.92l10.2 10.2m-13.59-6.8l10.19 10.2m-13.59-6.8l5.66 5.66M16.99.71H7.93m-2.27 0H3.4"/></g></g></svg>