<svg xmlns="http://www.w3.org/2000/svg" viewBox="0 0 42.42 46.42"><g data-name="Слой 2"><g data-name="13,5%" fill="none" stroke="#fff" stroke-miterlimit="10" stroke-width="1.42"><path d="M38.71.71h-29a3 3 0 0 0-3 3v29"/><path d="M35.71 17.71v-14a3 3 0 0 1 6 0v3h-4m-15 26h-22v1a4 4 0 0 0 4 4h22m6.61-18.28a2.17 2.17 0 0 0 1.9.7 2.2 2.2 0 0 1 2.47 2.1 2.22 2.22 0 0 0 1 1.77 2.23 2.23 0 0 1 .56 3.21 2.23 2.23 0 0 0-.35 2A2.21 2.21 0 0 1 37.3 32a2.19 2.19 0 0 0-1.54 1.31 2.18 2.18 0 0 1-3 1.12 2.17 2.17 0 0 0-2 0 2.18 2.18 0 0 1-3-1.12A2.2 2.2 0 0 0 26.13 32a2.22 2.22 0 0 1-1.61-2.82 2.24 2.24 0 0 0-.35-2 2.23 2.23 0 0 1 .55-3.18 2.22 2.22 0 0 0 1-1.77 2.19 2.19 0 0 1 2.47-2.1 2.17 2.17 0 0 0 1.9-.7 2.17 2.17 0 0 1 3.23 0z"/><circle cx="31.72" cy="26.71" r="3"/><path d="M34.71 33.71v11l-3-3-3 3v-11"/></g></g></svg>