<svg xmlns="http://www.w3.org/2000/svg" viewBox="0 0 46.75 36.9"><g data-name="Слой 2"><g data-name="10 000" fill="none" stroke="#fff" stroke-miterlimit="10" stroke-width="1.42"><path d="M46 33.23V3.67a3 3 0 0 0-3-3 2.48 2.48 0 0 0-2 1v29.59a2.48 2.48 0 0 1 2-1 3 3 0 1 1 0 5.91H3.67a3 3 0 1 1 0-5.91 2.48 2.48 0 0 1 2 1V1.69a2.48 2.48 0 0 0-2-1 3 3 0 0 0-3 3v29.54M5.64 4.65h35.47"/><path d="M7.61 8.59h2l2 2h1a3 3 0 0 1 3 3v2h-3l-2 2v1l-1 1h-2m31.53 1.82h-1l-2-2h-1l-1 1h-2l-3.84-3.93h-4.92v-1a3 3 0 0 1 3-3h1l2-2h5.82l2-2h2m-9.91 23.77h-2v-4.93l-2-2h-3v-2a3 3 0 0 1 3-3h3l3.94 3.94v4.93zm-16.75 0l1.97-1.98v-3.94l1.97-1.97v-.98l-1.97-1.97h-3.95l-1.97 1.97v2.95l1.97 1.97v3.95h1.98z"/></g></g></svg>